<svg width="95" height="42" viewBox="0 0 95 42" fill="none" xmlns="http://www.w3.org/2000/svg">
<path d="M39.1764 22.1574C39.1764 22.9825 39.0233 23.6811 38.7172 24.2533C38.4112 24.8123 37.9986 25.2647 37.4796 25.6107C36.9607 25.9567 36.3618 26.2095 35.6831 26.3692C35.0045 26.5289 34.2992 26.6088 33.5672 26.6088H31.8705V31.9384H28.4572V17.8059H33.6471C34.4189 17.8059 35.1375 17.8857 35.8029 18.0454C36.4816 18.1918 37.0671 18.438 37.5595 18.784C38.0652 19.1167 38.4577 19.5625 38.7372 20.1214C39.03 20.667 39.1764 21.3457 39.1764 22.1574ZM35.763 22.1774C35.763 21.8447 35.6964 21.5719 35.5634 21.359C35.4303 21.146 35.2506 20.9797 35.0244 20.8599C34.7982 20.7402 34.5387 20.6603 34.2459 20.6204C33.9665 20.5805 33.6737 20.5605 33.3676 20.5605H31.8705V23.894H33.3077C33.6271 23.894 33.9332 23.8674 34.226 23.8142C34.5187 23.761 34.7782 23.6678 35.0045 23.5347C35.244 23.4017 35.4303 23.2287 35.5634 23.0157C35.6964 22.7895 35.763 22.5101 35.763 22.1774ZM46.6355 24.6725C46.4891 24.6326 46.3427 24.606 46.1963 24.5927C46.0632 24.5794 45.9302 24.5727 45.7971 24.5727C45.3579 24.5727 44.9853 24.6526 44.6793 24.8123C44.3865 24.9719 44.147 25.1649 43.9607 25.3911C43.7877 25.6174 43.6612 25.8635 43.5814 26.1297C43.5015 26.3958 43.4616 26.6287 43.4616 26.8283V31.9384H40.188V21.9977H43.3419V23.4349H43.3818C43.6346 22.9292 43.9939 22.5167 44.4597 22.1973C44.9254 21.878 45.4644 21.7183 46.0765 21.7183C46.2096 21.7183 46.336 21.7249 46.4558 21.7382C46.5889 21.7515 46.6953 21.7715 46.7752 21.7981L46.6355 24.6725ZM51.6554 18.8239C51.6554 19.0767 51.6022 19.3163 51.4957 19.5425C51.4026 19.7554 51.2695 19.9417 51.0965 20.1014C50.9368 20.2611 50.7372 20.3875 50.4976 20.4807C50.2714 20.5738 50.0319 20.6204 49.779 20.6204C49.2467 20.6204 48.8009 20.4474 48.4416 20.1014C48.0823 19.7421 47.9027 19.3163 47.9027 18.8239C47.9027 18.5844 47.9493 18.3581 48.0424 18.1452C48.1356 17.919 48.2686 17.726 48.4416 17.5663C48.6146 17.4066 48.8142 17.2802 49.0405 17.1871C49.2667 17.0806 49.5129 17.0274 49.779 17.0274C50.0319 17.0274 50.2714 17.074 50.4976 17.1671C50.7372 17.2603 50.9368 17.3867 51.0965 17.5464C51.2695 17.7061 51.4026 17.899 51.4957 18.1252C51.6022 18.3382 51.6554 18.571 51.6554 18.8239ZM48.1422 31.9384V21.9977H51.4159V31.9384H48.1422ZM60.8555 25.2115C60.6692 24.9719 60.4163 24.779 60.097 24.6326C59.7776 24.4862 59.4516 24.413 59.1189 24.413C58.7729 24.413 58.4601 24.4862 58.1807 24.6326C57.9012 24.7657 57.6617 24.952 57.4621 25.1915C57.2625 25.4177 57.1028 25.6839 56.983 25.99C56.8766 26.296 56.8233 26.6221 56.8233 26.9681C56.8233 27.3141 56.8766 27.6401 56.983 27.9462C57.0895 28.2522 57.2425 28.525 57.4421 28.7646C57.655 28.9908 57.9012 29.1705 58.1807 29.3035C58.4735 29.4366 58.7995 29.5031 59.1588 29.5031C59.4915 29.5031 59.8175 29.4433 60.1369 29.3235C60.4696 29.1904 60.7357 29.0041 60.9353 28.7646L62.7518 30.9803C62.3393 31.3795 61.807 31.6922 61.1549 31.9185C60.5028 32.1447 59.8109 32.2578 59.0789 32.2578C58.2938 32.2578 57.5619 32.138 56.8832 31.8985C56.2045 31.659 55.6123 31.313 55.1067 30.8605C54.6143 30.3947 54.2217 29.8358 53.9289 29.1838C53.6495 28.5317 53.5098 27.7931 53.5098 26.9681C53.5098 26.1563 53.6495 25.4244 53.9289 24.7723C54.2217 24.1203 54.6143 23.568 55.1067 23.1156C55.6123 22.6498 56.2045 22.2971 56.8832 22.0576C57.5619 21.8048 58.2871 21.6783 59.059 21.6783C59.4183 21.6783 59.7709 21.7116 60.1169 21.7781C60.4762 21.8447 60.8156 21.9378 61.135 22.0576C61.4676 22.1641 61.7671 22.3038 62.0332 22.4768C62.3127 22.6365 62.5522 22.8161 62.7518 23.0157L60.8555 25.2115ZM70.8946 25.8303C70.8946 25.3113 70.7282 24.8655 70.3956 24.4929C70.0762 24.1203 69.5905 23.934 68.9384 23.934C68.619 23.934 68.3262 23.9872 68.0601 24.0937C67.7939 24.1868 67.5611 24.3199 67.3614 24.4929C67.1618 24.6659 67.0021 24.8721 66.8824 25.1117C66.7626 25.3379 66.6961 25.5774 66.6828 25.8303H70.8946ZM73.9087 27.0878C73.9087 27.2209 73.9087 27.354 73.9087 27.4871C73.9087 27.6201 73.9021 27.7466 73.8888 27.8663H66.6828C66.7094 28.1458 66.7892 28.3986 66.9223 28.6249C67.0687 28.8511 67.2483 29.0507 67.4613 29.2237C67.6875 29.3834 67.9337 29.5098 68.1998 29.603C68.4793 29.6961 68.7654 29.7427 69.0582 29.7427C69.5771 29.7427 70.0163 29.6495 70.3756 29.4632C70.7349 29.2636 71.0277 29.0108 71.2539 28.7047L73.5295 30.1419C73.0637 30.8206 72.4449 31.3462 71.6731 31.7188C70.9145 32.0781 70.0296 32.2578 69.0182 32.2578C68.273 32.2578 67.5677 32.1447 66.9023 31.9185C66.237 31.6789 65.6514 31.3396 65.1458 30.9004C64.6534 30.448 64.2608 29.8957 63.968 29.2436C63.6886 28.5916 63.5489 27.8464 63.5489 27.008C63.5489 26.1962 63.6886 25.4643 63.968 24.8123C64.2475 24.1469 64.6268 23.588 65.1058 23.1355C65.5849 22.6698 66.1505 22.3104 66.8025 22.0576C67.4546 21.8048 68.1599 21.6783 68.9184 21.6783C69.6503 21.6783 70.3224 21.8048 70.9345 22.0576C71.5467 22.2971 72.0723 22.6498 72.5114 23.1156C72.9506 23.5813 73.2899 24.1469 73.5295 24.8123C73.7823 25.4776 73.9087 26.2362 73.9087 27.0878ZM75.9788 31.9384V16.8477H79.2923V31.9384H75.9788ZM87.4934 33.4355C87.2938 33.9545 87.0676 34.4136 86.8148 34.8128C86.5752 35.2254 86.2825 35.5714 85.9365 35.8508C85.6038 36.1436 85.2046 36.3632 84.7388 36.5095C84.2863 36.6559 83.7474 36.7291 83.1219 36.7291C82.8159 36.7291 82.4965 36.7091 82.1638 36.6692C81.8444 36.6293 81.565 36.5761 81.3254 36.5095L81.6847 33.7549C81.8444 33.8081 82.0174 33.848 82.2037 33.8747C82.4033 33.9146 82.583 33.9345 82.7427 33.9345C83.2484 33.9345 83.6143 33.8148 83.8405 33.5752C84.0668 33.349 84.2597 33.023 84.4194 32.5971L84.7388 31.7787L80.5869 21.9977H84.2198L86.4355 28.3853H86.4954L88.4715 21.9977H91.9448L87.4934 33.4355Z" fill="#1B2124"/>
<path fill-rule="evenodd" clip-rule="evenodd" d="M13.2938 39.578C13.2341 40.7487 12.266 41.6795 11.0806 41.6795C9.89508 41.6795 8.92701 40.7487 8.86736 39.578H8.86444V29.3635H13.2967V39.4634H13.2967C13.2967 39.4654 13.2967 39.4673 13.2967 39.4693V39.578H13.2938Z" fill="#FEAC7C"/>
<path fill-rule="evenodd" clip-rule="evenodd" d="M21.4084 10.1572C21.1201 4.49904 16.4411 0 10.7112 0C4.9814 0 0.302378 4.49904 0.0140878 10.1572H0V29.3635H21.4224L21.4224 10.7112C21.4224 10.7069 21.4224 10.7026 21.4224 10.6983V10.1572H21.4084Z" fill="#FFD965"/>
<circle cx="11.0806" cy="7.94112" r="2.21611" fill="white"/>
</svg>
